<?xml version="1.0" standalone="no"?>
<!DOCTYPE svg PUBLIC "-//W3C//DTD SVG 20010904//EN"
 "http://www.w3.org/TR/2001/REC-SVG-20010904/DTD/svg10.dtd">
<svg version="1.0" xmlns="http://www.w3.org/2000/svg"
 width="512.000000pt" height="512.000000pt" viewBox="0 0 512.000000 512.000000"
 preserveAspectRatio="xMidYMid meet">
<metadata>
Created by potrace 1.11, written by Peter Selinger 2001-2013
</metadata>
<g transform="translate(0.000000,512.000000) scale(0.100000,-0.100000)"
fill="#000000" stroke="none">
<path d="M2410 4270 c-61 -7 -161 -26 -230 -42 -25 -6 -61 -14 -80 -18 -38 -9
-97 -29 -205 -70 -23 -9 -220 -106 -250 -123 -11 -7 -36 -24 -56 -39 -20 -16
-40 -28 -44 -28 -17 0 -187 -146 -271 -232 -173 -179 -252 -298 -379 -573 -24
-52 -73 -207 -89 -280 -8 -38 -22 -106 -32 -150 -26 -115 -26 -417 -1 -530 10
-44 25 -111 33 -150 20 -93 53 -197 89 -280 18 -42 104 -216 118 -240 151
-250 385 -485 632 -631 27 -17 225 -114 250 -124 113 -43 167 -61 213 -71 23
-5 51 -13 61 -19 11 -5 34 -10 51 -10 18 0 60 -8 94 -17 88 -25 444 -25 532 0
34 9 76 17 94 17 17 0 40 5 51 10 10 6 38 14 61 19 24 5 59 15 78 21 78 28
116 43 132 51 10 5 27 9 37 9 11 0 22 4 25 8 3 5 42 28 88 51 308 157 550 383
735 686 51 84 143 288 162 360 5 17 13 41 19 55 5 14 17 59 26 100 9 41 24
109 33 150 26 108 25 432 0 545 -38 162 -75 302 -102 375 -16 43 -113 243
-138 285 -83 135 -173 249 -288 362 -88 85 -229 203 -244 203 -4 0 -24 12 -44
28 -20 15 -45 32 -56 39 -27 16 -225 113 -250 123 -102 39 -167 61 -205 70
-19 4 -55 12 -80 18 -203 48 -403 63 -570 42z m495 -170 c264 -57 498 -162
690 -309 91 -69 240 -217 310 -306 181 -231 290 -486 340 -793 24 -142 17
-414 -14 -562 -97 -461 -354 -841 -742 -1093 -194 -127 -416 -210 -677 -252
-141 -24 -404 -17 -552 14 -461 97 -842 355 -1093 742 -127 195 -210 417 -252
677 -24 141 -17 404 14 552 112 536 448 967 931 1198 158 75 268 107 530 156
14 2 113 3 220 1 154 -2 216 -8 295 -25z"/>
<path d="M2235 2485 c-77 -7 -174 -18 -215 -24 -41 -7 -122 -19 -180 -27 -212
-32 -632 -122 -697 -149 -35 -15 -39 -24 -24 -53 5 -9 24 -55 41 -102 122
-323 357 -663 584 -846 151 -121 335 -219 481 -256 241 -60 453 -62 680 -7
270 64 553 255 758 509 146 181 306 471 367 664 5 16 17 37 26 48 11 11 14 22
8 28 -9 9 -182 55 -299 80 -33 7 -87 18 -120 26 -96 21 -211 41 -330 59 -60 9
-139 20 -175 26 -248 37 -641 47 -905 24z"/>
</g>
</svg>
